<svg xmlns="http://www.w3.org/2000/svg" viewBox="0 0 50 50"><defs><clipPath id="a"><path d="M.926 13.332h27.742V28H.926zm0 0"/></clipPath><clipPath id="b"><path d="M.926 12.668h29.742V24H.926zm0 0"/></clipPath><clipPath id="c"><path d="M22 .926h14.668v27.742H22zm0 0"/></clipPath><clipPath id="d"><path d="M26 .926h11.332v29.742H26zm0 0"/></clipPath><clipPath id="e"><path d="M21.332 22h27.594v14.668H21.332zm0 0"/></clipPath><clipPath id="f"><path d="M19.332 26h29.594v11.332H19.332zm0 0"/></clipPath><clipPath id="g"><path d="M13.332 21.332H28v27.594H13.332zm0 0"/></clipPath><clipPath id="h"><path d="M12.668 19.332H24v29.594H12.668zm0 0"/></clipPath></defs><path style="stroke:none;fill-rule:nonzero;fill:#ffbd59;fill-opacity:1" d="M1.797 31.645c2.437-11.829 13.265-19.188 25.043-17.07C15.277 12.878 4.848 20.253 2.844 31.84zm0 0"/><g clip-path="url(#a)"><path style="stroke:none;fill-rule:nonzero;fill:#ffbd59;fill-opacity:1" d="M.996 27.512C5.45 16.293 17.391 10.926 28.621 15.05 17.527 11.37 5.977 16.824 1.992 27.89zm0 0"/></g><g clip-path="url(#b)"><path style="stroke:none;fill-rule:nonzero;fill:#ffbd59;fill-opacity:1" d="M.926 23.309c6.332-10.282 19.023-13.493 29.367-7.477-10.281-5.55-22.61-2.187-28.453 8.02zm0 0"/></g><path style="stroke:none;fill-rule:nonzero;fill:#ffbd59;fill-opacity:1" d="M1.586 19.152c8.02-9.023 21.078-9.984 30.215-2.261-9.16-7.25-21.883-6.078-29.41 2.957zm0 0"/><path style="stroke:none;fill-rule:nonzero;fill:#ffbd59;fill-opacity:1" d="M2.957 15.176c9.465-7.492 22.492-6.172 30.148 3.02C25.344 9.464 12.613 8.41 3.63 16zm0 0"/><path style="stroke:none;fill-rule:nonzero;fill:#ffbd59;fill-opacity:1" d="M4.996 11.496c10.625-5.734 23.223-2.172 29.172 8.211C28.035 9.762 15.684 6.512 5.52 12.426zm0 0"/><path style="stroke:none;fill-rule:nonzero;fill:#ffbd59;fill-opacity:1" d="M7.645 8.23c11.46-3.804 23.246 1.891 27.3 13.149-4.308-10.86-15.91-16.203-26.949-12.145zm0 0"/><path style="stroke:none;fill-rule:nonzero;fill:#ffbd59;fill-opacity:1" d="M10.82 5.469C22.766 3.715 33.387 11.37 35.422 23.16 33.066 11.715 22.566 4.441 10.992 6.52zm0 0"/><path style="stroke:none;fill-rule:nonzero;fill:#ffbd59;fill-opacity:1" d="M14.426 3.305c12.07.347 21.199 9.73 21.156 21.695-.332-11.68-9.406-20.672-21.168-20.629zm0 0"/><path style="stroke:none;fill-rule:nonzero;fill:#ffbd59;fill-opacity:1" d="M18.355 1.797C30.18 4.234 37.543 15.062 35.425 26.84 37.122 15.277 29.747 4.848 18.16 2.844zm0 0"/><g clip-path="url(#c)"><path style="stroke:none;fill-rule:nonzero;fill:#ffbd59;fill-opacity:1" d="M22.484.996c11.223 4.453 16.59 16.395 12.461 27.625 3.68-11.094-1.773-22.644-12.836-26.629zm0 0"/></g><g clip-path="url(#d)"><path style="stroke:none;fill-rule:nonzero;fill:#ffbd59;fill-opacity:1" d="M26.691.926c10.278 6.332 13.493 19.023 7.477 29.367 5.547-10.281 2.184-22.61-8.02-28.453zm0 0"/></g><path style="stroke:none;fill-rule:nonzero;fill:#ffbd59;fill-opacity:1" d="M30.848 1.586c9.023 8.02 9.98 21.078 2.257 30.215 7.254-9.16 6.079-21.883-2.953-29.41zm0 0"/><path style="stroke:none;fill-rule:nonzero;fill:#ffbd59;fill-opacity:1" d="M34.824 2.957c7.492 9.465 6.172 22.492-3.023 30.148C40.535 25.344 41.59 12.613 34 3.63zm0 0"/><path style="stroke:none;fill-rule:nonzero;fill:#ffbd59;fill-opacity:1" d="M38.504 4.996c5.734 10.625 2.168 23.223-8.211 29.172 9.945-6.133 13.195-18.484 7.281-28.648zm0 0"/><path style="stroke:none;fill-rule:nonzero;fill:#ffbd59;fill-opacity:1" d="M41.77 7.645c3.804 11.46-1.895 23.246-13.149 27.3 10.86-4.308 16.203-15.91 12.145-26.949zm0 0"/><path style="stroke:none;fill-rule:nonzero;fill:#ffbd59;fill-opacity:1" d="M44.527 10.82c1.758 11.946-5.902 22.567-17.687 24.602 11.441-2.356 18.719-12.856 16.64-24.43zm0 0"/><path style="stroke:none;fill-rule:nonzero;fill:#ffbd59;fill-opacity:1" d="M46.695 14.426c-.347 12.07-9.73 21.199-21.695 21.156 11.68-.332 20.668-9.406 20.629-21.168zm0 0"/><path style="stroke:none;fill-rule:nonzero;fill:#ffbd59;fill-opacity:1" d="M48.2 18.355c-2.434 11.825-13.266 19.188-25.04 17.07 11.563 1.696 21.992-5.679 23.992-17.265zm0 0"/><g clip-path="url(#e)"><path style="stroke:none;fill-rule:nonzero;fill:#ffbd59;fill-opacity:1" d="M49.004 22.484c-4.453 11.223-16.399 16.59-27.625 12.461 11.09 3.68 22.64-1.773 26.625-12.836zm0 0"/></g><g clip-path="url(#f)"><path style="stroke:none;fill-rule:nonzero;fill:#ffbd59;fill-opacity:1" d="M49.074 26.691c-6.336 10.278-19.027 13.493-29.367 7.477 10.281 5.547 22.605 2.184 28.453-8.02zm0 0"/></g><path style="stroke:none;fill-rule:nonzero;fill:#ffbd59;fill-opacity:1" d="M48.414 30.848c-8.02 9.023-21.082 9.98-30.219 2.257 9.16 7.254 21.883 6.079 29.41-2.953zm0 0"/><path style="stroke:none;fill-rule:nonzero;fill:#ffbd59;fill-opacity:1" d="M47.043 34.824c-9.469 7.492-22.492 6.172-30.152-3.023C24.656 40.535 37.387 41.59 46.37 34zm0 0"/><path style="stroke:none;fill-rule:nonzero;fill:#ffbd59;fill-opacity:1" d="M45.004 38.504c-10.625 5.734-23.227 2.168-29.172-8.211 6.133 9.945 18.484 13.195 28.648 7.281zm0 0"/><path style="stroke:none;fill-rule:nonzero;fill:#ffbd59;fill-opacity:1" d="M42.355 41.77c-11.46 3.804-23.25-1.895-27.304-13.149 4.312 10.86 15.914 16.203 26.953 12.145zm0 0"/><path style="stroke:none;fill-rule:nonzero;fill:#ffbd59;fill-opacity:1" d="M39.176 44.527C27.23 46.285 16.613 38.625 14.574 26.84c2.36 11.441 12.86 18.719 24.43 16.64zm0 0"/><path style="stroke:none;fill-rule:nonzero;fill:#ffbd59;fill-opacity:1" d="M35.57 46.695C23.504 46.348 14.375 36.965 14.414 25c.336 11.68 9.41 20.668 21.168 20.629zm0 0"/><path style="stroke:none;fill-rule:nonzero;fill:#ffbd59;fill-opacity:1" d="M31.645 48.2c-11.829-2.434-19.188-13.266-17.07-25.04-1.696 11.563 5.679 21.992 17.265 23.992zm0 0"/><g clip-path="url(#g)"><path style="stroke:none;fill-rule:nonzero;fill:#ffbd59;fill-opacity:1" d="M27.512 49.004C16.293 44.55 10.922 32.605 15.05 21.379c-3.68 11.09 1.773 22.64 12.84 26.625zm0 0"/></g><g clip-path="url(#h)"><path style="stroke:none;fill-rule:nonzero;fill:#ffbd59;fill-opacity:1" d="M23.309 49.074c-10.282-6.336-13.493-19.027-7.477-29.367-5.55 10.281-2.187 22.605 8.02 28.453zm0 0"/></g><path style="stroke:none;fill-rule:nonzero;fill:#ffbd59;fill-opacity:1" d="M19.152 48.414c-9.023-8.02-9.984-21.082-2.261-30.219-7.25 9.16-6.078 21.883 2.957 29.41zm0 0"/><path style="stroke:none;fill-rule:nonzero;fill:#ffbd59;fill-opacity:1" d="M15.176 47.043c-7.492-9.469-6.172-22.492 3.02-30.152C9.464 24.656 8.41 37.387 16 46.37zm0 0"/><path style="stroke:none;fill-rule:nonzero;fill:#ffbd59;fill-opacity:1" d="M11.496 45.004c-5.734-10.625-2.172-23.227 8.211-29.172-9.945 6.133-13.195 18.484-7.281 28.648zm0 0"/><path style="stroke:none;fill-rule:nonzero;fill:#ffbd59;fill-opacity:1" d="M8.23 42.355c-3.804-11.46 1.891-23.25 13.149-27.304-10.86 4.312-16.203 15.914-12.145 26.953zm0 0"/><path style="stroke:none;fill-rule:nonzero;fill:#ffbd59;fill-opacity:1" d="M5.469 39.176C3.715 27.23 11.37 16.613 23.16 14.574c-11.445 2.36-18.719 12.86-16.64 24.43zm0 0"/><path style="stroke:none;fill-rule:nonzero;fill:#ffbd59;fill-opacity:1" d="M3.305 35.57C3.652 23.504 13.035 14.375 25 14.414c-11.68.336-20.672 9.41-20.629 21.168zm0 0"/></svg>